<svg xmlns="http://www.w3.org/2000/svg" width="22" height="18.989" viewBox="0 0 22 18.989">
  <path id="image" d="M1.493,7.5A5.832,5.832,0,0,1,6.028,3.187,27.07,27.07,0,0,1,12,2.505a27.073,27.073,0,0,1,5.972.682A5.833,5.833,0,0,1,22.508,7.5,20.45,20.45,0,0,1,23,12.064a19.529,19.529,0,0,1-.6,4.98,5.209,5.209,0,0,1-3.865,3.7,27.081,27.081,0,0,1-6.531.75,27.09,27.09,0,0,1-6.532-.75,5.209,5.209,0,0,1-3.865-3.7A19.565,19.565,0,0,1,1,12.065,20.437,20.437,0,0,1,1.493,7.5ZM6.575,10.9a1.162,1.162,0,0,1,2.325,0v1.55a1.162,1.162,0,1,1-2.325,0Zm9.687-1.162A1.162,1.162,0,0,0,15.1,10.9v1.55a1.162,1.162,0,1,0,2.324,0V10.9A1.162,1.162,0,0,0,16.262,9.739Z" transform="translate(-1 -2.505)" fill="#fbfbfb" fill-rule="evenodd"/>
</svg>
