<svg xmlns="http://www.w3.org/2000/svg" width="27" height="27" viewBox="0 0 27 27">
  <g id="Group_35136" data-name="Group 35136" transform="translate(-5914 -702.184)">
    <path id="Rectangle_7" data-name="Rectangle 7" d="M6,0H6a6,6,0,0,1,6,6v4.286A1.714,1.714,0,0,1,10.286,12H6A6,6,0,0,1,0,6V6A6,6,0,0,1,6,0Z" transform="translate(5914 702.184)" fill="#25c4ff"/>
    <path id="Rectangle_8" data-name="Rectangle 8" d="M6,0H6a6,6,0,0,1,6,6V6a6,6,0,0,1-6,6H1.714A1.714,1.714,0,0,1,0,10.286V6A6,6,0,0,1,6,0Z" transform="translate(5929 702.184)" fill="#9b64fa"/>
    <path id="Rectangle_11" data-name="Rectangle 11" d="M6,0H6a6,6,0,0,1,6,6V6a6,6,0,0,1-6,6H1.714A1.714,1.714,0,0,1,0,10.286V6A6,6,0,0,1,6,0Z" transform="translate(5941 717.184) rotate(90)" fill="#4752e6"/>
    <path id="Rectangle_12" data-name="Rectangle 12" d="M6,0H6a6,6,0,0,1,6,6V6a6,6,0,0,1-6,6H1.714A1.714,1.714,0,0,1,0,10.286V6A6,6,0,0,1,6,0Z" transform="translate(5926 729.184) rotate(180)" fill="#427bfe"/>
  </g>
</svg>
