<svg xmlns="http://www.w3.org/2000/svg" width="23.607" height="23.607" viewBox="0 0 23.607 23.607">
  <g id="image-plus" transform="translate(-1 -0.333)">
    <path id="Icon" d="M12.8,2.471H7.459c-1.911,0-2.866,0-3.6.372A3.412,3.412,0,0,0,2.372,4.334C2,5.063,2,6.019,2,7.929v9.553c0,1.911,0,2.866.372,3.6a3.412,3.412,0,0,0,1.491,1.491c.73.372,1.685.372,3.6.372H17.921a8.543,8.543,0,0,0,2.02-.116,3.412,3.412,0,0,0,2.413-2.412,8.555,8.555,0,0,0,.116-2.02M20.2,8.157V1.334M16.784,4.745h6.823M10.529,8.725A2.274,2.274,0,1,1,8.255,6.451,2.274,2.274,0,0,1,10.529,8.725Zm5.106,3.887-9.62,8.745c-.541.492-.812.738-.836.951a.569.569,0,0,0,.19.491c.161.142.527.142,1.258.142H17.3a8.5,8.5,0,0,0,3.1-.275A3.412,3.412,0,0,0,22.2,20.871a8.5,8.5,0,0,0,.275-3.1,4.931,4.931,0,0,0-.06-1.082,2.274,2.274,0,0,0-.425-.885,4.93,4.93,0,0,0-.808-.723L18,12.538a2.7,2.7,0,0,0-.882-.577,1.137,1.137,0,0,0-.634.02A2.7,2.7,0,0,0,15.635,12.613Z" transform="translate(0 0)" fill="none" stroke="#4b4b4b" stroke-linecap="round" stroke-linejoin="round" stroke-width="2"/>
  </g>
</svg>
