<svg xmlns="http://www.w3.org/2000/svg" width="143.848" height="42.969" viewBox="0 0 143.848 42.969">
  <g id="Group_35634" data-name="Group 35634" transform="translate(7154.831 5952.114)">
    <g id="Group_35134" data-name="Group 35134" transform="translate(-7053.576 -5952.114)">
      <path id="Path_24662" data-name="Path 24662" d="M-678.8,367.461a13.841,13.841,0,0,1,4.147-9.752c3.647-3.645,7.295-7.191,10.942-10.786,1.1-1.084,2.3-.788,2.748.69.849,2.66,1.649,5.369,2.5,8.028a1.811,1.811,0,0,1-.55,2.118c-2.9,2.807-5.8,5.664-8.694,8.521-1.149,1.133-1.149,1.822,0,2.955,2.848,2.807,5.746,5.664,8.644,8.471a1.954,1.954,0,0,1,.549,2.266c-.849,2.66-1.649,5.319-2.5,8.028a1.518,1.518,0,0,1-2.648.69c-3.747-3.694-7.545-7.339-11.242-11.082A14.452,14.452,0,0,1-678.8,367.461Z" transform="translate(700.922 -346.271)" fill="#b161f8"/>
      <path id="Path_24663" data-name="Path 24663" d="M-807.621,368.166a13.842,13.842,0,0,1-4.147,9.752c-3.648,3.645-7.3,7.191-10.943,10.786-1.1,1.084-2.3.788-2.748-.69-.849-2.659-1.649-5.368-2.5-8.028a1.811,1.811,0,0,1,.55-2.118c2.9-2.807,5.8-5.664,8.694-8.521,1.149-1.133,1.149-1.822,0-2.955-2.848-2.807-5.746-5.664-8.644-8.472a1.954,1.954,0,0,1-.55-2.266c.85-2.66,1.649-5.319,2.5-8.028a1.518,1.518,0,0,1,2.648-.689c3.747,3.694,7.544,7.339,11.242,11.082A14.625,14.625,0,0,1-807.621,368.166Z" transform="translate(828.093 -346.387)" fill="#b161f8"/>
    </g>
    <g id="Group_35135" data-name="Group 35135" transform="translate(-7154.831 -5947.353)">
      <path id="Path_24664" data-name="Path 24664" d="M-479.2,645l4,2.453c-2.016,4.349-9.15,7.322-14.916,6.269a14.413,14.413,0,0,1-12.131-12.864c-.651-8.041,4.1-13.588,9.788-15.442,6.457-2.1,13.955.27,17.349,5.653l-4.07,2.508a10.286,10.286,0,0,0-15.322-1.333,10.283,10.283,0,0,0,.093,14.163A10.245,10.245,0,0,0-479.2,645Z" transform="translate(502.309 -624.009)" fill="#150327"/>
      <path id="Path_24665" data-name="Path 24665" d="M-266.238,657.3v-2.53h4.591c.024.339.072.7.072,1.063,0,6.144-.021,12.289.026,18.432.008,1.051-.3,1.409-1.341,1.331-1.065-.079-2.141-.018-3.27-.018-.05-.954-.09-1.72-.133-2.541-5.785,4.059-11.129,3.912-14.8-.337s-3.591-11.3.155-15.313C-277.057,653.229-271.812,653.15-266.238,657.3Zm.014,7.835a6.265,6.265,0,0,0-6.32-6.491,6.341,6.341,0,0,0-6.508,6.458,6.346,6.346,0,0,0,6.477,6.5A6.287,6.287,0,0,0-266.224,665.134Z" transform="translate(338.618 -646.162)" fill="#150327"/>
      <path id="Path_24666" data-name="Path 24666" d="M-358.662,651.484c-1.3,0-2.547-.008-3.791,0-.872.007-.728-.63-.729-1.147-.008-3.259.015-6.519-.012-9.778a9.792,9.792,0,0,0-.266-2.478c-.68-2.486-2.96-3.834-5.758-3.5a5.065,5.065,0,0,0-4.636,5.051c-.062,3.425-.02,6.853-.022,10.279,0,.454,0,.907,0,1.556-1.4,0-2.714.027-4.026-.029-.2-.009-.452-.383-.548-.637a2.6,2.6,0,0,1-.032-.87q0-13.225,0-26.451c0-.448.038-.9.06-1.407h4.54V633.3a8.82,8.82,0,0,1,6.554-3.2c5.236-.213,8.7,3.024,8.748,8.25.037,4.011.009,8.023,0,12.034C-358.576,650.714-358.625,651.037-358.662,651.484Z" transform="translate(409.565 -622.079)" fill="#150327"/>
      <path id="Path_24667" data-name="Path 24667" d="M-175.737,634.734h4.646v5.312h5.837v4.228h-5.818v6.968c0,.878-.011,1.756,0,2.633.031,2.195,1.133,3.248,3.309,3.079a23.336,23.336,0,0,0,2.574-.494c0,1.217.049,2.423-.035,3.62a1.25,1.25,0,0,1-.729.831,8.518,8.518,0,0,1-6.358-.059,5.121,5.121,0,0,1-3.245-4.814c-.136-3.381-.1-6.768-.135-10.152-.005-.493,0-.985,0-1.6h-3.426v-4.192h3.378Z" transform="translate(260.202 -631.559)" fill="#150327"/>
    </g>
  </g>
</svg>
