<svg xmlns="http://www.w3.org/2000/svg" width="93.494" height="27.928" viewBox="0 0 93.494 27.928">
  <g id="Group_35646" data-name="Group 35646" transform="translate(7154.831 5952.114)">
    <g id="Group_35134" data-name="Group 35134" transform="translate(-7089.02 -5952.114)">
      <path id="Path_24662" data-name="Path 24662" d="M-678.8,360.044a9,9,0,0,1,2.7-6.338c2.371-2.369,4.741-4.674,7.112-7.011a.98.98,0,0,1,1.786.448c.552,1.729,1.072,3.489,1.624,5.218a1.177,1.177,0,0,1-.357,1.377c-1.884,1.825-3.767,3.681-5.651,5.538-.747.736-.747,1.184,0,1.921,1.851,1.825,3.734,3.681,5.618,5.506a1.27,1.27,0,0,1,.357,1.473c-.552,1.729-1.072,3.457-1.624,5.218a.986.986,0,0,1-1.721.448c-2.436-2.4-4.9-4.77-7.307-7.2A9.393,9.393,0,0,1-678.8,360.044Z" transform="translate(693.178 -346.271)" fill="#b161f8"/>
      <path id="Path_24663" data-name="Path 24663" d="M-814.787,360.55a9,9,0,0,1-2.7,6.339c-2.371,2.369-4.741,4.674-7.112,7.011a.98.98,0,0,1-1.786-.448c-.552-1.728-1.072-3.489-1.624-5.218a1.177,1.177,0,0,1,.357-1.376c1.883-1.825,3.767-3.681,5.651-5.538.747-.736.747-1.184,0-1.921-1.851-1.825-3.735-3.681-5.618-5.506a1.27,1.27,0,0,1-.357-1.473c.552-1.729,1.072-3.457,1.624-5.218a.986.986,0,0,1,1.721-.448c2.436,2.4,4.9,4.77,7.307,7.2A9.506,9.506,0,0,1-814.787,360.55Z" transform="translate(828.093 -346.394)" fill="#b161f8"/>
    </g>
    <g id="Group_35135" data-name="Group 35135" transform="translate(-7154.831 -5949.019)">
      <path id="Path_24664" data-name="Path 24664" d="M-487.292,637.88l2.6,1.595c-1.31,2.827-5.947,4.759-9.694,4.074a9.368,9.368,0,0,1-7.885-8.361,9.375,9.375,0,0,1,6.362-10.037c4.2-1.368,9.07.175,11.276,3.674l-2.646,1.63a6.685,6.685,0,0,0-9.958-.867,6.683,6.683,0,0,0,.061,9.205A6.659,6.659,0,0,0-487.292,637.88Z" transform="translate(502.309 -624.236)" fill="#fbfbfb"/>
      <path id="Path_24665" data-name="Path 24665" d="M-272.383,656.224V654.58h2.984c.016.221.047.456.047.691,0,3.994-.014,7.987.017,11.98.005.683-.2.916-.871.865-.692-.052-1.391-.011-2.125-.011l-.086-1.652c-3.76,2.638-7.234,2.543-9.62-.219a7.758,7.758,0,0,1,.1-9.953C-279.415,653.579-276.006,653.527-272.383,656.224Zm.009,5.092a4.072,4.072,0,0,0-4.108-4.219,4.122,4.122,0,0,0-4.23,4.2,4.125,4.125,0,0,0,4.21,4.224A4.086,4.086,0,0,0-272.374,661.316Z" transform="translate(319.427 -648.985)" fill="#fbfbfb"/>
      <path id="Path_24666" data-name="Path 24666" d="M-365.607,641.191c-.847,0-1.656-.005-2.464,0-.567,0-.473-.41-.474-.746-.005-2.118.01-4.237-.008-6.355a6.367,6.367,0,0,0-.173-1.61,3.226,3.226,0,0,0-3.742-2.274,3.292,3.292,0,0,0-3.013,3.283c-.041,2.226-.013,4.454-.015,6.681,0,.295,0,.59,0,1.012-.909,0-1.764.018-2.616-.019-.129-.006-.294-.249-.356-.414a1.692,1.692,0,0,1-.021-.565q0-8.6,0-17.192c0-.291.024-.582.039-.914h2.951v7.3a5.732,5.732,0,0,1,4.26-2.078,5.083,5.083,0,0,1,5.686,5.362c.024,2.607.006,5.214,0,7.822C-365.551,640.69-365.583,640.9-365.607,641.191Z" transform="translate(398.692 -622.079)" fill="#fbfbfb"/>
      <path id="Path_24667" data-name="Path 24667" d="M-176.92,634.734h3.02v3.453h3.794v2.748h-3.781v4.529c0,.57-.007,1.141,0,1.711.02,1.427.736,2.111,2.151,2a15.167,15.167,0,0,0,1.673-.321c0,.791.032,1.575-.023,2.353a.813.813,0,0,1-.474.54,5.537,5.537,0,0,1-4.132-.038,3.328,3.328,0,0,1-2.109-3.129c-.088-2.2-.065-4.4-.088-6.6,0-.32,0-.64,0-1.04h-2.227v-2.724h2.2Z" transform="translate(231.818 -632.671)" fill="#fbfbfb"/>
    </g>
  </g>
</svg>
