<svg id="Vector" xmlns="http://www.w3.org/2000/svg" width="17.162" height="17.161" viewBox="0 0 17.162 17.161">
  <path id="Path_24712" data-name="Path 24712" d="M6.1,1.333h7.016c.666,0,1.215,0,1.663.037a3.382,3.382,0,0,1,1.294.324A3.308,3.308,0,0,1,17.514,3.14a3.384,3.384,0,0,1,.324,1.294c.036.448.036,1,.036,1.663v5.512l-.5-.124c-.444-.111-.688-.173-.867-.229-.078-.025-.118-.041-.134-.047a.412.412,0,0,1-.107-.107c-.007-.016-.023-.056-.047-.134-.057-.179-.118-.423-.229-.867l-.249-1a2.068,2.068,0,0,0-4.012,0l-.249,1c-.111.444-.173.688-.229.867-.025.078-.041.118-.047.134a.414.414,0,0,1-.107.107c-.016.007-.056.023-.134.047-.179.056-.423.118-.867.229l-1,.249a2.068,2.068,0,0,0,0,4.012l1,.249c.444.111.688.173.867.229.078.024.118.04.134.047a.413.413,0,0,1,.107.107c.007.016.023.056.047.134.056.179.118.423.229.867l.124.5H6.1c-.666,0-1.215,0-1.663-.036a3.381,3.381,0,0,1-1.294-.324,3.308,3.308,0,0,1-1.446-1.446,3.382,3.382,0,0,1-.324-1.294c-.037-.448-.037-1-.037-1.663V6.1c0-.666,0-1.215.037-1.663A3.383,3.383,0,0,1,1.694,3.14,3.308,3.308,0,0,1,3.14,1.694,3.382,3.382,0,0,1,4.433,1.37C4.881,1.333,5.431,1.333,6.1,1.333ZM5.469,4.642a.827.827,0,1,0,0,1.654h.008a.827.827,0,0,0,0-1.654Zm2.481,0a.827.827,0,1,0,0,1.654h.008a.827.827,0,0,0,0-1.654Zm2.481,0a.827.827,0,1,0,0,1.654h.008a.827.827,0,0,0,0-1.654Z" transform="translate(-1.333 -1.333)" fill="#e4e4e3"/>
  <path id="Path_24713" data-name="Path 24713" d="M12.256,7.5a.62.62,0,0,1,.6.47l.249,1a5.094,5.094,0,0,0,.454,1.418,1.861,1.861,0,0,0,.564.564,5.1,5.1,0,0,0,1.418.454l1,.249a.62.62,0,0,1,0,1.2l-1,.249a5.1,5.1,0,0,0-1.418.454,1.863,1.863,0,0,0-.564.564,5.1,5.1,0,0,0-.454,1.418l-.249,1a.62.62,0,0,1-1.2,0l-.249-1a5.1,5.1,0,0,0-.454-1.418,1.863,1.863,0,0,0-.565-.564,5.094,5.094,0,0,0-1.418-.454l-1-.249a.62.62,0,0,1,0-1.2l1-.249a5.094,5.094,0,0,0,1.418-.454,1.861,1.861,0,0,0,.565-.564A5.094,5.094,0,0,0,11.4,8.967l.249-1A.62.62,0,0,1,12.256,7.5Z" transform="translate(0.15 0.15)" fill="#e4e4e3"/>
</svg>
