<svg id="image_12_" data-name="image (12)" xmlns="http://www.w3.org/2000/svg" width="25.538" height="25.538" viewBox="0 0 25.538 25.538">
  <path id="Path_24707" data-name="Path 24707" d="M8.006,1.225a1.161,1.161,0,0,0-2.077,0L5.019,3.046a6.542,6.542,0,0,1-.549,1,2.322,2.322,0,0,1-.421.421,6.542,6.542,0,0,1-1,.549L1.225,5.93a1.161,1.161,0,0,0,0,2.077l1.821.911a6.541,6.541,0,0,1,1,.549,2.322,2.322,0,0,1,.421.421,6.54,6.54,0,0,1,.549,1l.911,1.821a1.161,1.161,0,0,0,2.077,0l.911-1.821a6.539,6.539,0,0,1,.549-1,2.321,2.321,0,0,1,.421-.421,6.541,6.541,0,0,1,1-.549l1.821-.911a1.161,1.161,0,0,0,0-2.077L10.89,5.019a6.542,6.542,0,0,1-1-.549,2.321,2.321,0,0,1-.421-.421,6.538,6.538,0,0,1-.549-1Z" transform="translate(-0.583 -0.583)" fill="#b161f8"/>
  <path id="Path_24708" data-name="Path 24708" d="M13.974,2.327a1.161,1.161,0,1,0-2.322,0V4.069H9.911a1.161,1.161,0,0,0,0,2.322h1.741V8.132a1.161,1.161,0,1,0,2.322,0V6.39h1.741a1.161,1.161,0,1,0,0-2.322H13.974Z" transform="translate(7.502 -0.006)" fill="#25c4ff"/>
  <path id="Path_24709" data-name="Path 24709" d="M6.39,9.911a1.161,1.161,0,0,0-2.322,0v1.741H2.328a1.161,1.161,0,1,0,0,2.322H4.069v1.741a1.161,1.161,0,1,0,2.322,0V13.974H8.132a1.161,1.161,0,1,0,0-2.322H6.39Z" transform="translate(-0.006 7.502)" fill="#427cfe"/>
  <path id="Path_24710" data-name="Path 24710" d="M14.42,7.058a1.161,1.161,0,0,0-2.077,0l-1.1,2.208a6.543,6.543,0,0,1-.549,1,2.322,2.322,0,0,1-.421.421,6.54,6.54,0,0,1-1,.549l-2.208,1.1a1.161,1.161,0,0,0,0,2.076l2.208,1.1a6.528,6.528,0,0,1,1,.549,2.321,2.321,0,0,1,.421.421,6.547,6.547,0,0,1,.549,1l1.1,2.208a1.161,1.161,0,0,0,2.077,0l1.1-2.208a6.551,6.551,0,0,1,.549-1,2.326,2.326,0,0,1,.421-.421,6.532,6.532,0,0,1,1-.549l2.208-1.1a1.161,1.161,0,0,0,0-2.076l-2.208-1.1a6.545,6.545,0,0,1-1-.549,2.327,2.327,0,0,1-.421-.421,6.547,6.547,0,0,1-.549-1Z" transform="translate(5.192 5.192)" fill="#4752e6"/>
</svg>
